PathFileType	4	(X/Y/Z)	s04c0302.trc
DataRate	CameraRate	NumFrames	NumMarkers	Units	OrigDataRate	OrigDataStartFrame	OrigNumFrames
200	200	4	50	mm	200	1000	2000
Frame#	Time	racr			lacr			c7			jug			rlel			rdr			llel			ldr			s2			lic			ric			lasi			rasi			rpsi			lpsi			rgt			lgt			rth1			rth2			rth3			rth4			rlfc			rmfc			rsh1			rsh2			rsh3			rsh4			rlmal			rmmal			rcal			rtoe			rmt5			lth1			lth2			lth4			lth3			llfc			lmfc			lsh1			lsh2			lsh3			lsh4			llmal			lmmal			lcal			ltoe			lmt5			SBIKE			LBIKE			RBIKE			
		X1	Y1	Z1	X2	Y2	Z2	X3	Y3	Z3	X4	Y4	Z4	X5	Y5	Z5	X6	Y6	Z6	X7	Y7	Z7	X8	Y8	Z8	X9	Y9	Z9	X10	Y10	Z10	X11	Y11	Z11	X12	Y12	Z12	X13	Y13	Z13	X14	Y14	Z14	X15	Y15	Z15	X16	Y16	Z16	X17	Y17	Z17	X18	Y18	Z18	X19	Y19	Z19	X20	Y20	Z20	X21	Y21	Z21	X22	Y22	Z22	X23	Y23	Z23	X24	Y24	Z24	X25	Y25	Z25	X26	Y26	Z26	X27	Y27	Z27	X28	Y28	Z28	X29	Y29	Z29	X30	Y30	Z30	X31	Y31	Z31	X32	Y32	Z32	X33	Y33	Z33	X34	Y34	Z34	X35	Y35	Z35	X36	Y36	Z36	X37	Y37	Z37	X38	Y38	Z38	X39	Y39	Z39	X40	Y40	Z40	X41	Y41	Z41	X42	Y42	Z42	X43	Y43	Z43	X44	Y44	Z44	X45	Y45	Z45	X46	Y46	Z46	X47	Y47	Z47	X48	Y48	Z48	X49	Y49	Z49	X50	Y50	Z50	
1000	5.0000	846.864388	1266.594765	-164.302203	853.789101	1221.317581	-462.602459	859.200881	1322.571654	-323.806627	799.511199	1173.935803	-319.767756	595.368055	1139.997325	13.262957	711.376656	913.554391	-103.836215	613.775362	1124.348604	-616.105114	699.249750	916.490342	-486.403644	258.872943	1263.808762	-221.524904	367.929667	1264.180662	-408.575211	443.267831	1214.202243	-100.703424	409.619410	1207.555962	-387.023435	458.935261	1159.471366	-156.024838	308.982279	1293.851419	-183.593740	291.093235	1307.934152	-253.981285	370.957258	1164.368380	-78.454013	328.108882	1187.176316	-438.842112	376.326301	1010.475340	-54.270197	386.321198	923.802927	-67.440415	356.190886	844.325497	-71.000724	419.255021	921.930520	-84.938757	338.231440	697.746232	-98.325661	300.545132	684.104525	-206.363269	282.911344	584.098528	-65.899408	269.062675	495.258025	-81.860935	213.998429	429.093032	-83.710076	297.092151	486.910975	-107.881967	167.401370	280.930637	-89.188958	177.850140	290.324226	-174.492654	97.922158	291.514231	-111.082437	335.005623	115.955853	-182.434818	279.098373	122.696791	-112.232366	385.702337	1118.314183	-455.254348	464.046184	1082.709923	-468.872877	487.786646	1108.560248	-458.027469	513.141073	1011.546375	-487.100732	613.891002	892.226048	-483.068499	646.043283	857.649416	-374.653846	540.404637	811.760939	-500.096670	485.719136	749.115705	-473.734180	402.566809	717.968328	-465.219144	505.694662	728.989915	-446.753860	277.917531	636.349442	-447.202811	281.142688	639.958498	-360.812876	212.268061	679.965797	-402.442471	379.401671	425.045418	-413.006614	309.071775	465.215484	-474.660378	-184.691602	931.956590	-284.718424	-17.619739	79.747398	-485.161825	-17.550956	79.358503	-84.587509	
1001	5.0050	847.114471	1268.186279	-166.538225	855.126727	1218.380244	-463.128068	859.704982	1322.045635	-325.858866	800.631998	1173.212852	-320.263750	596.782902	1140.927921	11.917977	711.695033	913.392563	-104.024833	613.539665	1124.040438	-616.610941	699.227395	917.224159	-486.481787	259.516706	1265.610685	-220.373204	367.121740	1264.722914	-408.109148	444.831987	1215.552316	-100.513846	409.077872	1208.079570	-387.065430	459.525514	1160.375710	-155.592919	310.104021	1295.170599	-183.468717	291.596799	1309.523703	-253.118993	372.270105	1166.100773	-77.881941	327.910732	1188.937820	-438.229287	375.757302	1012.088625	-52.825182	384.734359	925.137775	-65.320451	353.337436	846.033472	-69.280469	417.640214	922.835099	-82.898748	333.981134	699.407536	-96.572005	296.764479	685.898352	-205.082328	277.556777	586.592032	-64.479399	263.012774	497.856522	-80.396717	207.381525	432.176745	-82.326690	291.012922	489.225567	-106.276493	159.563407	284.031200	-87.905495	170.537317	293.431357	-173.222384	90.422064	295.780157	-109.938872	324.467042	116.467250	-181.810548	268.512593	123.724790	-111.855291	385.688522	1120.977062	-453.027549	464.333092	1086.114205	-467.269820	487.885309	1112.331283	-456.821358	514.850100	1015.385094	-484.892351	616.155244	897.136234	-482.428227	650.200412	863.811792	-373.139077	544.140912	816.342479	-498.966664	491.011052	751.676450	-473.259110	408.674934	718.593013	-464.581834	511.545509	731.653981	-446.657883	285.567046	634.307450	-447.111611	290.017848	637.670061	-359.895706	219.416609	676.999503	-402.268234	390.526403	424.916871	-413.253231	319.783533	464.091322	-474.766437	-184.722091	931.961664	-284.808946	-17.616591	79.753146	-485.153659	-17.555752	79.367845	-84.594064	
1002	5.0100	847.441834	1269.586579	-168.759899	856.064683	1215.471999	-463.705403	860.318070	1321.283436	-327.918193	801.305565	1172.496323	-320.681241	598.281665	1141.816299	10.574416	711.890098	913.169325	-104.277890	613.064219	1123.792515	-617.075663	698.769002	917.586582	-485.287990	260.060479	1267.746717	-219.458310	366.622761	1265.528507	-408.105372	446.193623	1217.330519	-100.458756	408.635742	1208.557480	-387.165328	459.936904	1161.681457	-155.112721	311.259126	1297.330060	-183.037518	292.269681	1311.607156	-252.739345	373.093902	1168.270622	-77.531843	327.563918	1190.756515	-437.721096	375.722821	1013.863756	-51.226692	383.805690	926.864393	-63.456889	351.362867	847.977935	-67.890032	416.716318	924.300389	-81.174633	330.960918	701.316153	-95.237616	294.061153	688.067707	-204.277021	273.216940	589.392923	-63.523246	257.617523	500.881004	-79.352603	201.115561	435.627224	-81.724443	285.595015	491.756273	-105.011449	151.811278	287.926039	-86.870721	163.318076	297.188425	-172.113497	82.423873	300.328745	-109.264062	313.864956	117.569293	-181.347984	257.965548	125.534661	-111.376496	385.310058	1123.502538	-451.234633	464.318541	1089.231806	-465.971941	487.615025	1115.954320	-455.965290	515.484772	1018.747859	-482.574688	617.443560	901.906023	-481.388135	653.285529	869.405501	-371.405765	547.136005	819.971755	-497.539937	495.595575	753.527356	-472.779472	414.006221	718.604379	-464.129689	516.738071	733.673810	-446.562694	292.668754	631.368608	-447.211829	298.663935	634.978692	-359.031542	225.706722	673.029264	-402.466014	401.865424	424.555588	-413.402531	330.567482	462.457671	-474.881396	-184.759796	931.970579	-284.895244	-17.604500	79.736619	-485.165124	-17.551135	79.380346	-84.588613	
1003	5.0150	847.863124	1270.768403	-170.942880	856.628354	1212.676419	-464.383539	861.100672	1320.518479	-329.873652	801.562419	1172.017837	-321.180353	599.709454	1142.699685	9.213498	712.065470	913.039446	-104.364221	612.354347	1123.550387	-617.463170	698.956386	919.291945	-487.030484	260.651811	1270.383205	-218.928650	366.392025	1266.248247	-408.022317	447.233315	1219.543275	-100.395882	408.293155	1208.985685	-387.321554	460.152316	1163.310712	-154.667370	312.475620	1299.892794	-182.728345	293.037437	1314.042621	-252.654362	373.900247	1170.733377	-77.824524	327.012858	1192.640246	-437.260549	376.029346	1016.009867	-49.987615	383.388766	928.759928	-61.932683	350.314003	850.147786	-66.824383	416.189473	926.012445	-79.290878	329.303889	703.402277	-94.293969	292.494434	690.385770	-203.724880	269.928208	592.449181	-62.918379	252.917735	504.078471	-78.715459	195.528504	439.933163	-80.888114	280.826722	494.841418	-104.200104	144.145444	292.650746	-86.211748	155.875214	301.865417	-171.460284	74.878171	305.890094	-108.946641	302.295033	118.576754	-181.810059	247.528902	128.303696	-111.015946	384.652733	1125.963980	-450.212613	463.805733	1092.191674	-464.684548	486.914956	1119.132344	-455.023112	515.468993	1021.778252	-480.451072	617.949256	906.793272	-479.625778	655.054915	874.212769	-369.504047	549.445151	822.609757	-496.181658	499.469405	754.652509	-472.262129	418.703676	717.907059	-463.564057	521.023667	734.898842	-446.326055	299.241454	627.638147	-447.502931	306.892983	631.595479	-358.710509	231.323144	668.116139	-403.147931	412.940965	423.894911	-413.516566	340.842227	460.243994	-475.154385	-184.783025	931.985523	-284.959762	-17.609215	79.727053	-485.161039	-17.559578	79.376935	-84.578982	
